<mxfile host="Electron" agent="Mozilla/5.0 (Windows NT 10.0; Win64; x64) AppleWebKit/537.36 (KHTML, like Gecko) draw.io/27.0.9 Chrome/134.0.6998.205 Electron/35.4.0 Safari/537.36" version="27.0.9">
  <diagram name="Data Architecture" id="8qaep0BqMNRuxn_fHdxP">
    <mxGraphModel dx="1826" dy="841" grid="1" gridSize="10" guides="1" tooltips="1" connect="1" arrows="1" fold="1" page="0" pageScale="1" pageWidth="850" pageHeight="1100" math="0" shadow="0">
      <root>
        <mxCell id="0" />
        <mxCell id="1" parent="0" />
        <mxCell id="1Z7cYpBseG0tdDiKhxMk-2" value="" style="rounded=0;whiteSpace=wrap;html=1;fillColor=none;dashed=1;strokeColor=#535353;" vertex="1" parent="1">
          <mxGeometry x="-120" y="190" width="120" height="410" as="geometry" />
        </mxCell>
        <mxCell id="1Z7cYpBseG0tdDiKhxMk-3" value="&lt;font style=&quot;font-size: 19px;&quot;&gt;Sources&lt;/font&gt;" style="rounded=0;whiteSpace=wrap;html=1;strokeColor=none;" vertex="1" parent="1">
          <mxGeometry x="-105" y="180" width="90" height="20" as="geometry" />
        </mxCell>
        <mxCell id="1Z7cYpBseG0tdDiKhxMk-4" value="" style="rounded=0;whiteSpace=wrap;html=1;fillColor=none;dashed=1;strokeColor=#535353;" vertex="1" parent="1">
          <mxGeometry x="50" y="190" width="750" height="600" as="geometry" />
        </mxCell>
        <mxCell id="1Z7cYpBseG0tdDiKhxMk-5" value="&lt;font style=&quot;font-size: 19px;&quot;&gt;Data Warehouse&lt;/font&gt;" style="rounded=0;whiteSpace=wrap;html=1;strokeColor=none;" vertex="1" parent="1">
          <mxGeometry x="322.5" y="180" width="205" height="20" as="geometry" />
        </mxCell>
        <mxCell id="1Z7cYpBseG0tdDiKhxMk-6" value="" style="rounded=0;whiteSpace=wrap;html=1;fillColor=none;dashed=1;strokeColor=#535353;" vertex="1" parent="1">
          <mxGeometry x="870" y="190" width="160" height="450" as="geometry" />
        </mxCell>
        <mxCell id="1Z7cYpBseG0tdDiKhxMk-7" value="&lt;font style=&quot;font-size: 19px;&quot;&gt;Consumers&lt;/font&gt;" style="rounded=0;whiteSpace=wrap;html=1;strokeColor=none;" vertex="1" parent="1">
          <mxGeometry x="892.5" y="180" width="115" height="20" as="geometry" />
        </mxCell>
        <mxCell id="1Z7cYpBseG0tdDiKhxMk-8" value="&lt;font style=&quot;font-size: 14px;&quot;&gt;&lt;b&gt;Bronze Layer&lt;/b&gt;&lt;/font&gt;" style="rounded=0;whiteSpace=wrap;html=1;fillColor=#CD7F32;strokeColor=none;" vertex="1" parent="1">
          <mxGeometry x="80" y="220" width="190" height="20" as="geometry" />
        </mxCell>
        <mxCell id="1Z7cYpBseG0tdDiKhxMk-9" value="" style="rounded=0;whiteSpace=wrap;html=1;fillColor=none;strokeColor=#CD7F32;strokeWidth=3;" vertex="1" parent="1">
          <mxGeometry x="80" y="250" width="190" height="520" as="geometry" />
        </mxCell>
        <mxCell id="1Z7cYpBseG0tdDiKhxMk-10" value="&lt;font style=&quot;font-size: 14px;&quot;&gt;&lt;b&gt;Silver Layer&lt;/b&gt;&lt;/font&gt;" style="rounded=0;whiteSpace=wrap;html=1;fillColor=#C0C0C0;strokeColor=none;" vertex="1" parent="1">
          <mxGeometry x="330" y="220" width="190" height="20" as="geometry" />
        </mxCell>
        <mxCell id="1Z7cYpBseG0tdDiKhxMk-11" value="" style="rounded=0;whiteSpace=wrap;html=1;fillColor=none;strokeColor=#C0C0C0;strokeWidth=3;" vertex="1" parent="1">
          <mxGeometry x="330" y="250" width="190" height="520" as="geometry" />
        </mxCell>
        <mxCell id="1Z7cYpBseG0tdDiKhxMk-12" value="&lt;font style=&quot;font-size: 14px;&quot;&gt;&lt;b&gt;Gold Layer&lt;/b&gt;&lt;/font&gt;" style="rounded=0;whiteSpace=wrap;html=1;fillColor=#FFD700;strokeColor=none;" vertex="1" parent="1">
          <mxGeometry x="580" y="220" width="190" height="20" as="geometry" />
        </mxCell>
        <mxCell id="1Z7cYpBseG0tdDiKhxMk-13" value="" style="rounded=0;whiteSpace=wrap;html=1;fillColor=none;strokeColor=#FFD700;strokeWidth=3;" vertex="1" parent="1">
          <mxGeometry x="580" y="250" width="190" height="520" as="geometry" />
        </mxCell>
        <mxCell id="1Z7cYpBseG0tdDiKhxMk-14" value="" style="image;aspect=fixed;html=1;points=[];align=center;fontSize=12;image=img/lib/azure2/general/Folder_Blank.svg;" vertex="1" parent="1">
          <mxGeometry x="-94.5" y="230" width="69" height="56.00000000000001" as="geometry" />
        </mxCell>
        <mxCell id="1Z7cYpBseG0tdDiKhxMk-15" value="" style="image;aspect=fixed;html=1;points=[];align=center;fontSize=12;image=img/lib/azure2/general/File.svg;" vertex="1" parent="1">
          <mxGeometry x="-47.46" y="260" width="32.46" height="40" as="geometry" />
        </mxCell>
        <mxCell id="1Z7cYpBseG0tdDiKhxMk-16" value="&lt;b&gt;&lt;font style=&quot;font-size: 15px;&quot;&gt;CRM&lt;/font&gt;&lt;/b&gt;" style="text;html=1;align=center;verticalAlign=middle;whiteSpace=wrap;rounded=0;" vertex="1" parent="1">
          <mxGeometry x="-90" y="300" width="60" height="30" as="geometry" />
        </mxCell>
        <mxCell id="1Z7cYpBseG0tdDiKhxMk-17" value="" style="image;aspect=fixed;html=1;points=[];align=center;fontSize=12;image=img/lib/azure2/general/Folder_Blank.svg;" vertex="1" parent="1">
          <mxGeometry x="-94.5" y="350" width="69" height="56.00000000000001" as="geometry" />
        </mxCell>
        <mxCell id="1Z7cYpBseG0tdDiKhxMk-18" value="" style="image;aspect=fixed;html=1;points=[];align=center;fontSize=12;image=img/lib/azure2/general/File.svg;" vertex="1" parent="1">
          <mxGeometry x="-47.46" y="380" width="32.46" height="40" as="geometry" />
        </mxCell>
        <mxCell id="1Z7cYpBseG0tdDiKhxMk-19" value="&lt;b&gt;&lt;font style=&quot;font-size: 15px;&quot;&gt;ERP&lt;/font&gt;&lt;/b&gt;" style="text;html=1;align=center;verticalAlign=middle;whiteSpace=wrap;rounded=0;" vertex="1" parent="1">
          <mxGeometry x="-90" y="420" width="60" height="30" as="geometry" />
        </mxCell>
        <mxCell id="1Z7cYpBseG0tdDiKhxMk-20" value="" style="endArrow=none;html=1;rounded=0;exitX=0.167;exitY=0.683;exitDx=0;exitDy=0;exitPerimeter=0;entryX=0.833;entryY=0.683;entryDx=0;entryDy=0;entryPerimeter=0;" edge="1" parent="1">
          <mxGeometry width="50" height="50" relative="1" as="geometry">
            <mxPoint x="-99.96000000000004" y="460" as="sourcePoint" />
            <mxPoint x="-20.039999999999964" y="460" as="targetPoint" />
          </mxGeometry>
        </mxCell>
        <mxCell id="1Z7cYpBseG0tdDiKhxMk-21" value="&lt;font style=&quot;font-size: 13px;&quot;&gt;Object type: CSV files&lt;/font&gt;&lt;div&gt;&lt;font style=&quot;font-size: 13px;&quot;&gt;Interface : Local in folders&lt;/font&gt;&lt;/div&gt;" style="text;html=1;align=center;verticalAlign=middle;whiteSpace=wrap;rounded=0;" vertex="1" parent="1">
          <mxGeometry x="-113.62" y="490" width="107.25" height="70" as="geometry" />
        </mxCell>
        <mxCell id="1Z7cYpBseG0tdDiKhxMk-22" value="" style="html=1;verticalLabelPosition=bottom;align=center;labelBackgroundColor=#ffffff;verticalAlign=top;strokeWidth=2;strokeColor=#030603;shadow=0;dashed=0;shape=mxgraph.ios7.icons.data;fillColor=#CD7F32;" vertex="1" parent="1">
          <mxGeometry x="148.94" y="270" width="52.12" height="60" as="geometry" />
        </mxCell>
        <mxCell id="1Z7cYpBseG0tdDiKhxMk-23" value="" style="html=1;verticalLabelPosition=bottom;align=center;labelBackgroundColor=#ffffff;verticalAlign=top;strokeWidth=2;strokeColor=#030603;shadow=0;dashed=0;shape=mxgraph.ios7.icons.data;fillColor=#C0C0C0;" vertex="1" parent="1">
          <mxGeometry x="398.94" y="270" width="52.12" height="60" as="geometry" />
        </mxCell>
        <mxCell id="1Z7cYpBseG0tdDiKhxMk-24" value="" style="html=1;verticalLabelPosition=bottom;align=center;labelBackgroundColor=#ffffff;verticalAlign=top;strokeWidth=2;strokeColor=#030603;shadow=0;dashed=0;shape=mxgraph.ios7.icons.data;fillColor=#FFD700;" vertex="1" parent="1">
          <mxGeometry x="648.94" y="270" width="52.12" height="60" as="geometry" />
        </mxCell>
        <mxCell id="1Z7cYpBseG0tdDiKhxMk-25" value="" style="endArrow=classic;html=1;rounded=0;entryX=0.011;entryY=0.348;entryDx=0;entryDy=0;entryPerimeter=0;exitX=1.017;exitY=0.588;exitDx=0;exitDy=0;exitPerimeter=0;strokeWidth=5;flowAnimation=1;" edge="1" parent="1" source="1Z7cYpBseG0tdDiKhxMk-2" target="1Z7cYpBseG0tdDiKhxMk-9">
          <mxGeometry width="50" height="50" relative="1" as="geometry">
            <mxPoint x="10" y="540" as="sourcePoint" />
            <mxPoint x="60" y="490" as="targetPoint" />
          </mxGeometry>
        </mxCell>
        <mxCell id="1Z7cYpBseG0tdDiKhxMk-26" value="" style="endArrow=classic;html=1;rounded=0;entryX=0;entryY=0.369;entryDx=0;entryDy=0;entryPerimeter=0;exitX=0.999;exitY=0.371;exitDx=0;exitDy=0;exitPerimeter=0;strokeWidth=5;flowAnimation=1;" edge="1" parent="1" source="1Z7cYpBseG0tdDiKhxMk-9" target="1Z7cYpBseG0tdDiKhxMk-11">
          <mxGeometry width="50" height="50" relative="1" as="geometry">
            <mxPoint x="210" y="470" as="sourcePoint" />
            <mxPoint x="290" y="470" as="targetPoint" />
          </mxGeometry>
        </mxCell>
        <mxCell id="1Z7cYpBseG0tdDiKhxMk-27" value="" style="endArrow=classic;html=1;rounded=0;exitX=1.016;exitY=0.387;exitDx=0;exitDy=0;exitPerimeter=0;strokeWidth=5;flowAnimation=1;entryX=-0.011;entryY=0.385;entryDx=0;entryDy=0;entryPerimeter=0;" edge="1" parent="1" source="1Z7cYpBseG0tdDiKhxMk-11" target="1Z7cYpBseG0tdDiKhxMk-13">
          <mxGeometry width="50" height="50" relative="1" as="geometry">
            <mxPoint x="550" y="451" as="sourcePoint" />
            <mxPoint x="590" y="450" as="targetPoint" />
            <Array as="points">
              <mxPoint x="550" y="450" />
            </Array>
          </mxGeometry>
        </mxCell>
        <mxCell id="1Z7cYpBseG0tdDiKhxMk-28" value="" style="endArrow=classic;html=1;rounded=0;exitX=1.026;exitY=0.312;exitDx=0;exitDy=0;exitPerimeter=0;strokeWidth=5;flowAnimation=1;entryX=0;entryY=0.5;entryDx=0;entryDy=0;" edge="1" parent="1" source="1Z7cYpBseG0tdDiKhxMk-13" target="1Z7cYpBseG0tdDiKhxMk-6">
          <mxGeometry width="50" height="50" relative="1" as="geometry">
            <mxPoint x="560" y="481" as="sourcePoint" />
            <mxPoint x="860" y="420" as="targetPoint" />
            <Array as="points" />
          </mxGeometry>
        </mxCell>
        <mxCell id="1Z7cYpBseG0tdDiKhxMk-29" value="&lt;font&gt;RAW DATA&lt;/font&gt;" style="text;html=1;align=center;verticalAlign=middle;whiteSpace=wrap;rounded=0;" vertex="1" parent="1">
          <mxGeometry x="124.47" y="330" width="101.06" height="30" as="geometry" />
        </mxCell>
        <mxCell id="1Z7cYpBseG0tdDiKhxMk-30" value="&lt;font&gt;CLEAN AND STANDARIZED DATA&lt;/font&gt;" style="text;html=1;align=center;verticalAlign=middle;whiteSpace=wrap;rounded=0;" vertex="1" parent="1">
          <mxGeometry x="374.47" y="340" width="101.06" height="30" as="geometry" />
        </mxCell>
        <mxCell id="1Z7cYpBseG0tdDiKhxMk-31" value="BI-READY DATA" style="text;html=1;align=center;verticalAlign=middle;whiteSpace=wrap;rounded=0;" vertex="1" parent="1">
          <mxGeometry x="630" y="340" width="101.06" height="30" as="geometry" />
        </mxCell>
        <mxCell id="1Z7cYpBseG0tdDiKhxMk-32" value="" style="endArrow=none;html=1;rounded=0;exitX=0.167;exitY=0.683;exitDx=0;exitDy=0;exitPerimeter=0;entryX=0.895;entryY=0.229;entryDx=0;entryDy=0;entryPerimeter=0;" edge="1" parent="1" target="1Z7cYpBseG0tdDiKhxMk-9">
          <mxGeometry width="50" height="50" relative="1" as="geometry">
            <mxPoint x="100" y="369" as="sourcePoint" />
            <mxPoint x="179.92000000000007" y="369" as="targetPoint" />
          </mxGeometry>
        </mxCell>
        <mxCell id="1Z7cYpBseG0tdDiKhxMk-33" value="" style="endArrow=none;html=1;rounded=0;exitX=0.167;exitY=0.683;exitDx=0;exitDy=0;exitPerimeter=0;entryX=0.895;entryY=0.229;entryDx=0;entryDy=0;entryPerimeter=0;" edge="1" parent="1">
          <mxGeometry width="50" height="50" relative="1" as="geometry">
            <mxPoint x="350" y="380" as="sourcePoint" />
            <mxPoint x="500" y="380" as="targetPoint" />
          </mxGeometry>
        </mxCell>
        <mxCell id="1Z7cYpBseG0tdDiKhxMk-34" value="" style="endArrow=none;html=1;rounded=0;exitX=0.167;exitY=0.683;exitDx=0;exitDy=0;exitPerimeter=0;entryX=0.895;entryY=0.229;entryDx=0;entryDy=0;entryPerimeter=0;" edge="1" parent="1">
          <mxGeometry width="50" height="50" relative="1" as="geometry">
            <mxPoint x="600" y="377.5" as="sourcePoint" />
            <mxPoint x="750" y="377.5" as="targetPoint" />
          </mxGeometry>
        </mxCell>
        <mxCell id="1Z7cYpBseG0tdDiKhxMk-35" value="&lt;font style=&quot;font-size: 16px;&quot;&gt;&lt;b&gt;Object type: &lt;/b&gt;TABLES&lt;/font&gt;&lt;div&gt;&lt;font style=&quot;font-size: 16px;&quot;&gt;&lt;br&gt;&lt;/font&gt;&lt;/div&gt;&lt;div&gt;&lt;font style=&quot;font-size: 16px;&quot;&gt;&lt;b&gt;Load:&lt;/b&gt;&lt;/font&gt;&lt;/div&gt;&lt;div&gt;&lt;ul&gt;&lt;li&gt;&lt;font style=&quot;font-size: 16px;&quot;&gt;Batch processing&lt;/font&gt;&lt;/li&gt;&lt;li&gt;&lt;font style=&quot;font-size: 16px;&quot;&gt;Full load&lt;/font&gt;&lt;/li&gt;&lt;li&gt;&lt;font style=&quot;font-size: 16px;&quot;&gt;Truncate &amp;amp; Insert&lt;/font&gt;&lt;/li&gt;&lt;/ul&gt;&lt;/div&gt;&lt;div&gt;&lt;font style=&quot;font-size: 16px;&quot;&gt;&lt;br&gt;&lt;/font&gt;&lt;/div&gt;&lt;div&gt;&lt;font style=&quot;font-size: 16px;&quot;&gt;&lt;br&gt;&lt;/font&gt;&lt;/div&gt;&lt;div&gt;&lt;font style=&quot;font-size: 16px;&quot;&gt;&lt;b&gt;Data Model :&lt;/b&gt; None (raw)&lt;/font&gt;&lt;/div&gt;&lt;div&gt;&lt;br&gt;&lt;/div&gt;" style="text;html=1;align=left;verticalAlign=middle;whiteSpace=wrap;rounded=0;" vertex="1" parent="1">
          <mxGeometry x="85" y="397.5" width="180" height="225" as="geometry" />
        </mxCell>
        <mxCell id="1Z7cYpBseG0tdDiKhxMk-36" value="&lt;font style=&quot;font-size: 16px;&quot;&gt;&lt;b&gt;Object type: &lt;/b&gt;TABLES&lt;/font&gt;&lt;div&gt;&lt;font style=&quot;font-size: 16px;&quot;&gt;&lt;br&gt;&lt;/font&gt;&lt;/div&gt;&lt;div&gt;&lt;font style=&quot;font-size: 16px;&quot;&gt;&lt;b&gt;Load:&lt;/b&gt;&lt;/font&gt;&lt;/div&gt;&lt;div&gt;&lt;ul&gt;&lt;li&gt;&lt;font style=&quot;font-size: 16px;&quot;&gt;Batch processing&lt;/font&gt;&lt;/li&gt;&lt;li&gt;&lt;font style=&quot;font-size: 16px;&quot;&gt;Full load&lt;/font&gt;&lt;/li&gt;&lt;li&gt;&lt;font style=&quot;font-size: 16px;&quot;&gt;Truncate &amp;amp; Insert&lt;/font&gt;&lt;/li&gt;&lt;/ul&gt;&lt;/div&gt;&lt;div&gt;&lt;font style=&quot;font-size: 16px;&quot;&gt;&lt;br&gt;&lt;/font&gt;&lt;/div&gt;&lt;div&gt;&lt;font style=&quot;&quot;&gt;&lt;div style=&quot;font-size: 12px;&quot;&gt;&lt;font style=&quot;font-size: 16px;&quot;&gt;&lt;b&gt;Transformations:&lt;/b&gt;&lt;/font&gt;&lt;/div&gt;&lt;div style=&quot;&quot;&gt;&lt;ul style=&quot;&quot;&gt;&lt;li style=&quot;&quot;&gt;&lt;span style=&quot;font-size: 16px;&quot;&gt;Data Cleansing&lt;/span&gt;&lt;/li&gt;&lt;li style=&quot;&quot;&gt;&lt;span style=&quot;font-size: 16px;&quot;&gt;Data Standarization&lt;/span&gt;&lt;/li&gt;&lt;li style=&quot;font-size: 12px;&quot;&gt;&lt;span style=&quot;background-color: transparent; color: light-dark(rgb(0, 0, 0), rgb(255, 255, 255)); font-size: 16px;&quot;&gt;Data Normalization&lt;/span&gt;&lt;/li&gt;&lt;li style=&quot;&quot;&gt;&lt;span style=&quot;font-size: 16px;&quot;&gt;Derived Columns&lt;/span&gt;&lt;/li&gt;&lt;li&gt;&lt;span style=&quot;font-size: 16px;&quot;&gt;Data Enrichement&lt;/span&gt;&lt;/li&gt;&lt;/ul&gt;&lt;/div&gt;&lt;/font&gt;&lt;/div&gt;&lt;div&gt;&lt;font style=&quot;font-size: 16px;&quot;&gt;&lt;br&gt;&lt;/font&gt;&lt;/div&gt;&lt;div&gt;&lt;font style=&quot;font-size: 16px;&quot;&gt;&lt;b&gt;Data Model :&lt;/b&gt; None (raw)&lt;/font&gt;&lt;/div&gt;&lt;div&gt;&lt;br&gt;&lt;/div&gt;" style="text;html=1;align=left;verticalAlign=middle;whiteSpace=wrap;rounded=0;" vertex="1" parent="1">
          <mxGeometry x="335" y="470" width="180" height="225" as="geometry" />
        </mxCell>
        <mxCell id="1Z7cYpBseG0tdDiKhxMk-37" value="&lt;font style=&quot;font-size: 16px;&quot;&gt;&lt;b&gt;Object type: &lt;/b&gt;VIEWS&lt;/font&gt;&lt;div&gt;&lt;font style=&quot;font-size: 16px;&quot;&gt;&lt;br&gt;&lt;/font&gt;&lt;/div&gt;&lt;div&gt;&lt;font style=&quot;font-size: 16px;&quot;&gt;&lt;b&gt;No Load&lt;/b&gt;&lt;/font&gt;&lt;/div&gt;&lt;div&gt;&lt;font style=&quot;font-size: 16px;&quot;&gt;&lt;br&gt;&lt;/font&gt;&lt;/div&gt;&lt;div&gt;&lt;font style=&quot;&quot;&gt;&lt;div style=&quot;font-size: 12px;&quot;&gt;&lt;font style=&quot;font-size: 16px;&quot;&gt;&lt;b&gt;Transformations:&lt;/b&gt;&lt;/font&gt;&lt;/div&gt;&lt;div style=&quot;&quot;&gt;&lt;ul style=&quot;&quot;&gt;&lt;li style=&quot;&quot;&gt;&lt;span style=&quot;font-size: 16px;&quot;&gt;Data Integrations&lt;/span&gt;&lt;/li&gt;&lt;li style=&quot;&quot;&gt;&lt;span style=&quot;font-size: 16px;&quot;&gt;Aggregations&lt;/span&gt;&lt;/li&gt;&lt;li style=&quot;&quot;&gt;&lt;span style=&quot;font-size: 16px;&quot;&gt;Business Logics&amp;nbsp;&lt;/span&gt;&lt;/li&gt;&lt;li style=&quot;&quot;&gt;&lt;span style=&quot;font-size: 16px;&quot;&gt;Consumer Specifications&lt;/span&gt;&lt;/li&gt;&lt;/ul&gt;&lt;/div&gt;&lt;/font&gt;&lt;/div&gt;&lt;div&gt;&lt;font style=&quot;font-size: 16px;&quot;&gt;&lt;br&gt;&lt;/font&gt;&lt;/div&gt;&lt;div&gt;&lt;font style=&quot;font-size: 16px;&quot;&gt;&lt;b&gt;Data Model :&lt;/b&gt;&amp;nbsp;&lt;/font&gt;&lt;/div&gt;&lt;div&gt;&lt;ul&gt;&lt;li&gt;&lt;font style=&quot;font-size: 16px;&quot;&gt;Start schema&lt;/font&gt;&lt;/li&gt;&lt;li&gt;&lt;font style=&quot;font-size: 16px;&quot;&gt;Flat Table&lt;/font&gt;&lt;/li&gt;&lt;li&gt;&lt;font style=&quot;font-size: 16px;&quot;&gt;Aggregated Table&lt;/font&gt;&lt;/li&gt;&lt;/ul&gt;&lt;/div&gt;&lt;div&gt;&lt;font style=&quot;font-size: 16px;&quot;&gt;&lt;br&gt;&lt;/font&gt;&lt;/div&gt;&lt;div&gt;&lt;font style=&quot;font-size: 16px;&quot;&gt;&lt;br&gt;&lt;/font&gt;&lt;/div&gt;&lt;div&gt;&lt;br&gt;&lt;/div&gt;" style="text;html=1;align=left;verticalAlign=middle;whiteSpace=wrap;rounded=0;" vertex="1" parent="1">
          <mxGeometry x="590.53" y="470" width="180" height="225" as="geometry" />
        </mxCell>
        <mxCell id="1Z7cYpBseG0tdDiKhxMk-38" value="" style="points=[];aspect=fixed;html=1;align=center;shadow=0;dashed=0;fillColor=#FF6A00;strokeColor=none;shape=mxgraph.alibaba_cloud.machine_learning;" vertex="1" parent="1">
          <mxGeometry x="905.27" y="490" width="89.46" height="90" as="geometry" />
        </mxCell>
        <mxCell id="1Z7cYpBseG0tdDiKhxMk-39" value="&lt;b&gt;&lt;font style=&quot;font-size: 15px;&quot;&gt;Machine learning&lt;/font&gt;&lt;/b&gt;" style="text;html=1;align=center;verticalAlign=middle;whiteSpace=wrap;rounded=0;" vertex="1" parent="1">
          <mxGeometry x="920" y="580" width="60" height="30" as="geometry" />
        </mxCell>
        <mxCell id="1Z7cYpBseG0tdDiKhxMk-40" value="" style="image;aspect=fixed;html=1;points=[];align=center;fontSize=12;image=img/lib/azure2/analytics/Power_BI_Embedded.svg;" vertex="1" parent="1">
          <mxGeometry x="919" y="224" width="51" height="68" as="geometry" />
        </mxCell>
        <mxCell id="1Z7cYpBseG0tdDiKhxMk-41" value="" style="verticalLabelPosition=bottom;sketch=0;aspect=fixed;html=1;verticalAlign=top;strokeColor=none;align=center;outlineConnect=0;shape=mxgraph.citrix.reporting;" vertex="1" parent="1">
          <mxGeometry x="919" y="361" width="61.5" height="69" as="geometry" />
        </mxCell>
        <mxCell id="1Z7cYpBseG0tdDiKhxMk-42" value="&lt;b&gt;&lt;font style=&quot;font-size: 15px;&quot;&gt;Reporting&lt;/font&gt;&lt;/b&gt;" style="text;html=1;align=center;verticalAlign=middle;whiteSpace=wrap;rounded=0;" vertex="1" parent="1">
          <mxGeometry x="925" y="430" width="60" height="30" as="geometry" />
        </mxCell>
        <mxCell id="1Z7cYpBseG0tdDiKhxMk-44" value="&lt;b&gt;&lt;font style=&quot;font-size: 15px;&quot;&gt;Power BI&lt;/font&gt;&lt;/b&gt;" style="text;html=1;align=center;verticalAlign=middle;whiteSpace=wrap;rounded=0;" vertex="1" parent="1">
          <mxGeometry x="889" y="292" width="111" height="30" as="geometry" />
        </mxCell>
        <mxCell id="1Z7cYpBseG0tdDiKhxMk-46" value="" style="shape=image;verticalLabelPosition=bottom;labelBackgroundColor=default;verticalAlign=top;aspect=fixed;imageAspect=0;image=https://st.digital/web/image/49035-96753916/MicrosoftSQLServer.png;clipPath=inset(0% 76% 0% 0%);" vertex="1" parent="1">
          <mxGeometry x="50.41" y="129" width="48.315789473684205" height="51" as="geometry" />
        </mxCell>
        <mxCell id="1Z7cYpBseG0tdDiKhxMk-47" value="" style="shape=image;verticalLabelPosition=bottom;labelBackgroundColor=default;verticalAlign=top;aspect=fixed;imageAspect=0;image=https://data-ai.theodo.com/hubfs/snowflake_logo1.png;" vertex="1" parent="1">
          <mxGeometry x="110.00000000000001" y="130" width="50.21" height="50" as="geometry" />
        </mxCell>
      </root>
    </mxGraphModel>
  </diagram>
</mxfile>
